<svg xmlns="http://www.w3.org/2000/svg" xmlns:xlink="http://www.w3.org/1999/xlink" width="567" zoomAndPan="magnify" viewBox="0 0 425.25 425.249985" height="567" preserveAspectRatio="xMidYMid meet" version="1.0"><defs><clipPath id="060fddc2c6"><path d="M 0 0 L 424.5 0 L 424.5 424.5 L 0 424.5 Z M 0 0 " clip-rule="nonzero"/></clipPath><clipPath id="bbf413731a"><path d="M 41 173 L 415 173 L 415 424.5 L 41 424.5 Z M 41 173 " clip-rule="nonzero"/></clipPath></defs><g clip-path="url(#060fddc2c6)"><path fill="#ffffff" d="M 0 0 L 424.5 0 L 424.5 424.5 L 0 424.5 Z M 0 0 " fill-opacity="1" fill-rule="nonzero"/><path fill="#000000" d="M 0 0 L 424.554688 0 L 424.554688 424.554688 L 0 424.554688 Z M 0 0 " fill-opacity="1" fill-rule="nonzero"/></g><path fill="#ffdb6e" d="M 313.679688 253.84375 C 314.105469 251.710938 315.8125 250.429688 317.945312 250.003906 L 335.4375 248.296875 C 341.835938 247.445312 346.957031 241.898438 346.957031 235.5 L 346.957031 208.195312 C 346.957031 201.796875 341.835938 196.25 335.4375 195.394531 L 317.945312 193.691406 C 315.8125 193.261719 314.105469 191.984375 313.679688 189.851562 C 311.972656 183.878906 309.414062 177.902344 306.425781 172.785156 C 305.574219 171.078125 305.574219 168.519531 306.855469 167.238281 L 317.945312 153.585938 C 322.210938 148.46875 321.785156 141.214844 317.09375 136.519531 L 297.46875 116.894531 C 292.773438 112.203125 285.523438 111.777344 280.402344 116.042969 L 266.75 127.136719 C 265.042969 127.988281 262.910156 127.988281 261.203125 127.136719 C 255.660156 124.148438 250.113281 122.015625 244.140625 119.882812 C 242.007812 119.457031 240.726562 117.75 240.300781 115.617188 L 238.167969 98.125 C 237.3125 91.726562 231.765625 86.605469 225.367188 86.605469 L 198.0625 86.605469 C 191.664062 86.605469 186.117188 91.726562 185.265625 98.125 L 183.558594 115.617188 C 183.132812 117.75 181.851562 119.457031 179.71875 119.882812 C 173.746094 121.589844 167.773438 124.148438 162.652344 127.136719 C 160.945312 127.988281 158.386719 127.988281 157.105469 126.707031 L 143.453125 115.617188 C 138.335938 111.351562 131.082031 111.777344 126.390625 116.46875 L 106.765625 136.09375 C 102.070312 140.789062 101.644531 148.039062 105.910156 153.160156 L 117.003906 166.8125 C 118.285156 168.519531 118.285156 170.652344 117.429688 172.359375 C 114.445312 177.90625 112.3125 183.449219 110.179688 189.421875 C 109.75 191.554688 108.042969 192.835938 105.910156 193.261719 L 87.992188 195.394531 C 81.59375 196.25 76.472656 201.796875 76.472656 208.195312 L 76.472656 235.5 C 76.472656 241.898438 81.59375 247.445312 87.992188 248.296875 L 105.484375 250.003906 C 107.617188 250.429688 109.324219 251.710938 109.75 253.84375 C 111.457031 259.816406 114.015625 265.789062 117.003906 270.910156 C 117.855469 272.617188 117.855469 275.175781 116.578125 276.457031 L 105.484375 290.109375 C 101.21875 295.226562 101.644531 302.480469 106.339844 307.171875 L 125.964844 326.796875 C 130.65625 331.492188 137.910156 331.917969 143.027344 327.652344 L 156.679688 316.558594 C 158.386719 315.277344 160.519531 315.277344 162.226562 316.132812 C 167.773438 319.117188 173.320312 321.25 179.292969 323.386719 C 181.425781 323.8125 182.703125 325.519531 183.132812 327.652344 L 184.839844 345.144531 C 185.691406 351.542969 191.238281 356.660156 197.636719 356.660156 L 224.941406 356.660156 C 231.339844 356.660156 236.886719 351.542969 237.738281 345.144531 L 239.445312 327.652344 C 239.875 325.519531 241.152344 323.8125 243.285156 323.386719 C 249.257812 321.679688 255.230469 319.117188 260.351562 316.132812 C 262.058594 315.277344 264.617188 315.277344 265.898438 316.558594 L 279.550781 327.652344 C 284.667969 331.917969 291.921875 331.492188 296.613281 326.796875 L 316.238281 307.171875 C 320.933594 302.480469 321.359375 295.226562 317.09375 290.109375 L 306 276.457031 C 305.574219 275.175781 305.574219 273.042969 306.425781 271.335938 C 309.414062 265.789062 311.546875 259.816406 313.679688 253.84375 Z M 211.714844 273.894531 C 183.132812 273.894531 159.667969 250.429688 159.667969 221.847656 C 159.667969 193.261719 183.132812 169.796875 211.714844 169.796875 C 240.300781 169.796875 263.765625 193.261719 263.765625 221.847656 C 263.765625 250.429688 240.300781 273.894531 211.714844 273.894531 Z M 211.714844 273.894531 " fill-opacity="1" fill-rule="nonzero"/><path fill="#ffdb6e" d="M 85.859375 95.992188 C 152.839844 29.011719 260.351562 26.878906 330.320312 89.164062 L 320.507812 98.976562 C 317.945312 101.539062 317.09375 105.378906 317.945312 108.789062 C 318.800781 112.203125 321.785156 114.761719 325.199219 115.191406 L 371.273438 123.296875 C 371.703125 123.296875 372.554688 123.296875 372.980469 123.296875 C 375.542969 123.296875 378.101562 122.441406 379.808594 120.308594 C 381.941406 118.175781 382.792969 114.761719 382.367188 111.777344 L 374.261719 65.699219 C 373.835938 62.289062 371.273438 59.300781 367.863281 58.449219 C 364.449219 57.59375 360.609375 58.449219 358.050781 61.007812 L 347.808594 71.246094 C 268.03125 0 145.160156 1.707031 68.367188 78.5 C 21.011719 125.855469 0.109375 193.691406 12.480469 259.390625 C 13.757812 265.363281 18.878906 269.628906 24.425781 269.628906 C 25.277344 269.628906 26.132812 269.628906 26.558594 269.203125 C 33.382812 267.921875 37.652344 261.523438 36.371094 254.699219 C 25.707031 197.101562 44.050781 137.375 85.859375 95.992188 Z M 85.859375 95.992188 " fill-opacity="1" fill-rule="nonzero"/><g clip-path="url(#bbf413731a)"><path fill="#ffdb6e" d="M 410.953125 183.878906 C 409.671875 177.050781 403.273438 172.785156 396.445312 174.066406 C 389.621094 175.34375 385.355469 181.742188 386.632812 188.570312 C 397.726562 246.589844 379.378906 305.894531 337.570312 347.703125 C 270.589844 414.683594 163.078125 416.816406 93.113281 354.527344 L 102.925781 344.714844 C 105.484375 342.15625 106.339844 338.316406 105.484375 334.902344 C 104.207031 331.492188 101.644531 328.929688 98.230469 328.503906 L 52.582031 320.398438 C 49.597656 319.972656 46.183594 320.824219 44.050781 322.957031 C 41.917969 325.089844 40.636719 328.503906 41.492188 331.492188 L 49.597656 377.566406 C 50.449219 380.980469 52.582031 383.964844 55.996094 384.820312 C 56.847656 385.246094 57.703125 385.246094 58.980469 385.246094 C 61.542969 385.246094 64.101562 384.394531 65.808594 382.257812 L 76.046875 372.019531 C 114.445312 407.003906 163.078125 424.496094 211.714844 424.496094 C 263.765625 424.496094 315.386719 404.871094 355.0625 365.195312 C 402.417969 317.839844 423.324219 250.003906 410.953125 183.878906 Z M 410.953125 183.878906 " fill-opacity="1" fill-rule="nonzero"/></g></svg>