<svg xmlns="http://www.w3.org/2000/svg" xmlns:xlink="http://www.w3.org/1999/xlink" width="567" zoomAndPan="magnify" viewBox="0 0 425.25 425.249985" height="567" preserveAspectRatio="xMidYMid meet" version="1.0"><defs><clipPath id="0b23585a84"><path d="M 0 0 L 424.5 0 L 424.5 424.5 L 0 424.5 Z M 0 0 " clip-rule="nonzero"/></clipPath><clipPath id="bbf8faeb60"><path d="M 33 22 L 381.878906 22 L 381.878906 401 L 33 401 Z M 33 22 " clip-rule="nonzero"/></clipPath></defs><g clip-path="url(#0b23585a84)"><path fill="#ffffff" d="M 0 0 L 424.5 0 L 424.5 424.5 L 0 424.5 Z M 0 0 " fill-opacity="1" fill-rule="nonzero"/><path fill="#000000" d="M 0 0 L 424.554688 0 L 424.554688 424.554688 L 0 424.554688 Z M 0 0 " fill-opacity="1" fill-rule="nonzero"/></g><g clip-path="url(#bbf8faeb60)"><path fill="#ffdb6e" d="M 340.101562 182.730469 L 340.101562 136.316406 C 340.101562 136.054688 340.035156 135.855469 340.035156 135.660156 C 339.835938 134.214844 339.3125 132.898438 338.320312 131.78125 L 237.277344 24.949219 C 236.226562 23.832031 234.847656 23.242188 233.394531 23.042969 C 233.132812 22.976562 232.867188 22.910156 232.472656 22.910156 L 82.128906 22.910156 C 78.511719 22.910156 75.554688 25.871094 75.554688 29.484375 L 75.554688 182.730469 C 51.6875 185.625 33.148438 205.9375 33.148438 230.59375 L 33.148438 311.585938 C 33.148438 336.238281 51.6875 356.554688 75.554688 359.445312 L 75.554688 394.355469 C 75.554688 397.972656 78.511719 400.929688 82.128906 400.929688 L 333.527344 400.929688 C 337.140625 400.929688 340.101562 397.972656 340.101562 394.355469 L 340.101562 359.445312 C 363.964844 356.554688 382.503906 336.238281 382.503906 311.585938 L 382.503906 230.59375 C 382.503906 205.9375 363.964844 185.625 340.101562 182.730469 Z M 326.953125 387.78125 L 88.703125 387.78125 L 88.703125 359.839844 L 326.953125 359.839844 Z M 126.4375 294.429688 C 129.324219 297.914062 133.011719 299.554688 137.679688 299.554688 C 141.097656 299.554688 143.925781 298.503906 146.359375 296.335938 C 148.855469 294.230469 150.625 290.679688 151.742188 285.882812 C 151.878906 285.421875 152.144531 285.027344 152.53125 284.765625 C 152.933594 284.566406 153.386719 284.5 153.84375 284.632812 L 167.652344 289.035156 C 168.507812 289.300781 168.964844 290.21875 168.769531 291.074219 C 166.535156 299.09375 162.792969 305.144531 157.597656 309.089844 C 152.40625 313.03125 145.757812 315.003906 137.804688 315.003906 C 128.015625 315.003906 119.863281 311.652344 113.550781 304.882812 C 107.242188 298.242188 104.019531 288.972656 104.019531 277.53125 C 104.019531 265.371094 107.242188 255.769531 113.550781 249 C 119.929688 242.164062 128.410156 238.742188 138.730469 238.742188 C 147.738281 238.742188 155.167969 241.441406 160.886719 246.832031 C 164.304688 250.050781 166.863281 254.652344 168.578125 260.570312 C 168.644531 261.03125 168.644531 261.492188 168.382812 261.886719 C 168.183594 262.28125 167.789062 262.542969 167.328125 262.609375 L 153.261719 266.027344 C 152.800781 266.09375 152.332031 266.027344 152.011719 265.828125 C 151.617188 265.566406 151.355469 265.171875 151.222656 264.777344 C 150.507812 261.492188 148.988281 258.925781 146.628906 257.019531 C 144.261719 255.113281 141.433594 254.195312 138.007812 254.195312 C 133.214844 254.195312 129.460938 255.835938 126.503906 259.253906 C 123.480469 262.738281 122.03125 268.460938 122.03125 276.480469 C 122.03125 284.960938 123.480469 291.007812 126.4375 294.429688 Z M 170.683594 311.585938 L 198.167969 240.980469 C 198.433594 240.386719 199.023438 239.925781 199.742188 239.925781 L 214.796875 239.925781 C 215.460938 239.925781 216.042969 240.320312 216.308594 240.980469 L 244.378906 311.125 C 244.640625 311.390625 244.78125 311.785156 244.78125 312.179688 C 244.78125 313.097656 244.058594 313.820312 243.136719 313.820312 L 227.550781 313.820312 C 226.890625 313.820312 226.234375 313.425781 226.039062 312.769531 L 220.253906 297.78125 L 194.285156 297.78125 L 188.894531 312.769531 C 188.628906 313.363281 188.039062 313.820312 187.316406 313.820312 L 172.195312 313.820312 C 171.667969 313.820312 171.140625 313.558594 170.878906 313.097656 C 170.550781 312.636719 170.484375 312.113281 170.683594 311.585938 Z M 248.914062 312.179688 L 248.914062 241.570312 C 248.914062 240.652344 249.640625 239.925781 250.558594 239.925781 L 276.59375 239.925781 C 282.707031 239.925781 287.242188 240.386719 290.53125 241.375 C 294.933594 242.6875 298.75 244.988281 301.898438 248.277344 C 304.992188 251.5625 307.355469 255.640625 308.996094 260.375 C 310.574219 264.976562 311.363281 270.828125 311.363281 277.53125 C 311.363281 283.515625 310.640625 288.773438 309.128906 293.113281 C 307.289062 298.503906 304.59375 302.910156 301.175781 306.261719 C 298.480469 308.824219 294.929688 310.796875 290.457031 312.242188 C 287.171875 313.296875 282.765625 313.820312 277.375 313.820312 L 250.558594 313.820312 C 249.640625 313.820312 248.914062 313.097656 248.914062 312.179688 Z M 326.953125 182.335938 L 88.703125 182.335938 L 88.703125 36.058594 L 225.90625 36.058594 L 225.90625 136.316406 C 225.90625 139.933594 228.863281 142.890625 232.480469 142.890625 L 326.953125 142.890625 Z M 326.953125 182.335938 " fill-opacity="1" fill-rule="nonzero"/></g><path fill="#ffdb6e" d="M 207.101562 262.804688 L 199.871094 282.59375 L 214.464844 282.59375 Z M 207.101562 262.804688 " fill-opacity="1" fill-rule="nonzero"/><path fill="#ffdb6e" d="M 283.695312 298.042969 C 285.730469 297.519531 287.375 296.664062 288.691406 295.480469 C 290.003906 294.296875 291.121094 292.257812 291.976562 289.367188 C 292.902344 286.40625 293.359375 282.199219 293.359375 276.941406 C 293.359375 271.679688 292.902344 267.605469 291.976562 264.910156 C 291.121094 262.214844 289.9375 260.175781 288.359375 258.730469 C 286.914062 257.285156 284.941406 256.296875 282.574219 255.835938 C 280.667969 255.378906 276.855469 255.179688 271.203125 255.179688 L 266.46875 255.179688 L 266.46875 298.636719 L 275.476562 298.636719 C 279.289062 298.636719 282.050781 298.4375 283.695312 298.042969 Z M 283.695312 298.042969 " fill-opacity="1" fill-rule="nonzero"/></svg>