<svg xmlns="http://www.w3.org/2000/svg" xmlns:xlink="http://www.w3.org/1999/xlink" width="567" zoomAndPan="magnify" viewBox="0 0 425.25 425.249985" height="567" preserveAspectRatio="xMidYMid meet" version="1.0"><defs><clipPath id="00eb3258ab"><path d="M 0 0 L 424.5 0 L 424.5 424.5 L 0 424.5 Z M 0 0 " clip-rule="nonzero"/></clipPath><clipPath id="033268db6c"><path d="M 0 64.738281 L 424 64.738281 L 424 382.214844 L 0 382.214844 Z M 0 64.738281 " clip-rule="nonzero"/></clipPath></defs><g clip-path="url(#00eb3258ab)"><path fill="#ffffff" d="M 0 0 L 424.5 0 L 424.5 424.5 L 0 424.5 Z M 0 0 " fill-opacity="1" fill-rule="nonzero"/><path fill="#000000" d="M 0 0 L 424.554688 0 L 424.554688 424.554688 L 0 424.554688 Z M 0 0 " fill-opacity="1" fill-rule="nonzero"/></g><g clip-path="url(#033268db6c)"><path fill="#ffdb6e" d="M 268.535156 173.625 L 268.535156 197.695312 C 268.535156 198.257812 268.996094 198.71875 269.5625 198.71875 L 287.4375 198.71875 C 291.066406 198.71875 294.007812 201.664062 294.007812 205.292969 C 294.007812 208.921875 291.066406 211.867188 287.4375 211.867188 L 269.5625 211.867188 C 268.996094 211.867188 268.535156 212.328125 268.535156 212.894531 L 268.535156 233.886719 C 268.535156 234.449219 268.996094 234.910156 269.5625 234.910156 L 287.4375 234.910156 C 291.066406 234.910156 294.007812 237.855469 294.007812 241.484375 C 294.007812 245.113281 291.066406 248.058594 287.4375 248.058594 L 269.5625 248.058594 C 268.996094 248.058594 268.535156 248.519531 268.535156 249.085938 L 268.535156 273.152344 C 268.535156 276.78125 265.59375 279.726562 261.960938 279.726562 L 237.894531 279.726562 C 237.332031 279.726562 236.871094 280.1875 236.871094 280.75 L 236.871094 298.625 C 236.871094 302.253906 233.925781 305.199219 230.296875 305.199219 C 226.667969 305.199219 223.722656 302.253906 223.722656 298.625 L 223.722656 280.75 C 223.722656 280.1875 223.261719 279.726562 222.695312 279.726562 L 201.703125 279.726562 C 201.140625 279.726562 200.679688 280.1875 200.679688 280.75 L 200.679688 298.625 C 200.679688 302.253906 197.734375 305.199219 194.105469 305.199219 C 190.476562 305.199219 187.53125 302.253906 187.53125 298.625 L 187.53125 280.75 C 187.53125 280.1875 187.070312 279.726562 186.503906 279.726562 L 162.4375 279.726562 C 158.808594 279.726562 155.863281 276.78125 155.863281 273.152344 L 155.863281 249.085938 C 155.863281 248.519531 155.402344 248.058594 154.839844 248.058594 L 136.964844 248.058594 C 133.335938 248.058594 130.390625 245.113281 130.390625 241.484375 C 130.390625 237.855469 133.335938 234.910156 136.964844 234.910156 L 154.839844 234.910156 C 155.402344 234.910156 155.863281 234.449219 155.863281 233.886719 L 155.863281 212.894531 C 155.863281 212.328125 155.402344 211.867188 154.839844 211.867188 L 136.964844 211.867188 C 133.335938 211.867188 130.390625 208.921875 130.390625 205.292969 C 130.390625 201.664062 133.335938 198.71875 136.964844 198.71875 L 154.839844 198.71875 C 155.402344 198.71875 155.863281 198.257812 155.863281 197.695312 L 155.863281 173.625 C 155.863281 169.996094 158.808594 167.054688 162.4375 167.054688 L 186.503906 167.054688 C 187.070312 167.054688 187.53125 166.59375 187.53125 166.027344 L 187.53125 148.152344 C 187.53125 144.523438 190.476562 141.578125 194.105469 141.578125 C 197.734375 141.578125 200.679688 144.523438 200.679688 148.152344 L 200.679688 166.027344 C 200.679688 166.59375 201.140625 167.054688 201.703125 167.054688 L 222.695312 167.054688 C 223.261719 167.054688 223.722656 166.59375 223.722656 166.027344 L 223.722656 148.152344 C 223.722656 144.523438 226.667969 141.578125 230.296875 141.578125 C 233.925781 141.578125 236.871094 144.523438 236.871094 148.152344 L 236.871094 166.027344 C 236.871094 166.59375 237.332031 167.054688 237.894531 167.054688 L 261.960938 167.054688 C 265.59375 167.054688 268.535156 169.996094 268.535156 173.625 Z M 66.371094 124.101562 C 66.371094 127.644531 63.5 130.511719 59.960938 130.511719 C 56.417969 130.511719 53.546875 127.644531 53.546875 124.101562 L 53.546875 71.148438 C 53.546875 67.605469 56.417969 64.734375 59.960938 64.734375 L 112.914062 64.734375 C 116.457031 64.734375 119.324219 67.605469 119.324219 71.148438 C 119.324219 74.6875 116.457031 77.558594 112.914062 77.558594 L 67.398438 77.558594 C 66.832031 77.558594 66.371094 78.019531 66.371094 78.585938 Z M 370.851562 124.101562 C 370.851562 127.644531 367.980469 130.511719 364.441406 130.511719 C 360.898438 130.511719 358.027344 127.644531 358.027344 124.101562 L 358.027344 78.585938 C 358.027344 78.019531 357.566406 77.558594 357.003906 77.558594 L 311.488281 77.558594 C 307.945312 77.558594 305.074219 74.6875 305.074219 71.148438 C 305.074219 67.605469 307.945312 64.734375 311.488281 64.734375 L 364.441406 64.734375 C 367.980469 64.734375 370.851562 67.605469 370.851562 71.148438 Z M 53.546875 322.675781 C 53.546875 319.132812 56.417969 316.265625 59.960938 316.265625 C 63.5 316.265625 66.371094 319.132812 66.371094 322.675781 L 66.371094 368.191406 C 66.371094 368.757812 66.832031 369.21875 67.398438 369.21875 L 112.914062 369.21875 C 116.453125 369.21875 119.324219 372.089844 119.324219 375.628906 C 119.324219 379.171875 116.453125 382.042969 112.914062 382.042969 L 59.960938 382.042969 C 56.417969 382.042969 53.546875 379.171875 53.546875 375.628906 Z M 358.027344 322.675781 C 358.027344 319.132812 360.898438 316.265625 364.441406 316.265625 C 367.980469 316.265625 370.851562 319.132812 370.851562 322.675781 L 370.851562 375.628906 C 370.851562 379.171875 367.980469 382.042969 364.441406 382.042969 L 311.484375 382.042969 C 307.945312 382.042969 305.074219 379.171875 305.074219 375.628906 C 305.074219 372.089844 307.945312 369.21875 311.484375 369.21875 L 357.003906 369.21875 C 357.566406 369.21875 358.027344 368.757812 358.027344 368.191406 Z M 212.199219 195.226562 C 196.648438 195.226562 184.039062 207.839844 184.039062 223.386719 C 184.039062 238.9375 196.648438 251.550781 212.199219 251.550781 C 227.75 251.550781 240.359375 238.9375 240.359375 223.386719 C 240.359375 207.839844 227.75 195.226562 212.199219 195.226562 Z M 86.390625 185.339844 C 76.097656 219.402344 80.117188 256.265625 97.273438 287.152344 C 97.769531 288.042969 96.789062 289.035156 95.890625 288.550781 C 66.121094 272.578125 39.125 250.648438 15.992188 224.0625 C 15.65625 223.671875 15.65625 223.105469 15.992188 222.714844 C 39.125 196.128906 66.121094 174.203125 95.890625 158.226562 C 96.789062 157.742188 97.769531 158.734375 97.273438 159.628906 C 92.785156 167.703125 89.117188 176.3125 86.390625 185.339844 Z M 98.183594 142.65625 C 61.863281 160.566406 29.28125 186.757812 2.160156 219.207031 C 0.140625 221.640625 0.046875 225.046875 2.097656 227.496094 C 54.964844 290.730469 129.164062 330.980469 212.199219 330.980469 C 252.613281 330.980469 291.136719 321.417969 326.21875 304.121094 C 362.535156 286.210938 395.117188 260.019531 422.242188 227.574219 C 424.261719 225.136719 424.355469 221.730469 422.304688 219.28125 C 369.433594 156.046875 295.234375 115.796875 212.199219 115.796875 C 171.789062 115.796875 133.265625 125.359375 98.183594 142.65625 Z M 327.128906 287.148438 C 349.105469 247.589844 349.105469 199.1875 327.128906 159.628906 C 326.632812 158.734375 327.609375 157.742188 328.511719 158.226562 C 358.28125 174.203125 385.277344 196.128906 408.40625 222.714844 C 408.746094 223.105469 408.746094 223.671875 408.40625 224.0625 C 385.277344 250.648438 358.277344 272.574219 328.511719 288.550781 C 327.609375 289.035156 326.632812 288.042969 327.128906 287.148438 Z M 327.128906 287.148438 " fill-opacity="1" fill-rule="evenodd"/></g></svg>