<?xml version="1.0" standalone="no"?>
<!DOCTYPE svg PUBLIC "-//W3C//DTD SVG 20010904//EN"
 "http://www.w3.org/TR/2001/REC-SVG-20010904/DTD/svg10.dtd">
<svg version="1.0" xmlns="http://www.w3.org/2000/svg"
 width="310.000000pt" height="163.000000pt" viewBox="0 0 310.000000 163.000000"
 preserveAspectRatio="xMidYMid meet">

<g transform="translate(0.000000,163.000000) scale(0.100000,-0.100000)"
fill="white" stroke="none">
<path d="M456 1055 c-24 -40 -27 -52 -21 -88 4 -23 7 -54 6 -69 0 -16 1 -28 3
-28 7 0 56 81 56 92 -1 7 -11 0 -24 -15 -22 -27 -23 -28 -29 -8 -3 13 6 34 25
60 27 38 28 46 4 42 -5 -1 -4 5 3 13 7 8 11 22 9 31 -2 10 -13 -1 -32 -30z"/>
<path d="M2012 1059 c-34 -13 -28 -46 13 -66 19 -9 35 -21 35 -25 0 -16 -32
-21 -52 -9 -26 16 -34 8 -13 -13 20 -20 59 -21 75 -1 14 16 4 55 -14 55 -7 0
-21 6 -32 14 -15 12 -17 17 -6 28 10 10 17 10 32 0 25 -16 31 -15 24 2 -7 18
-34 25 -62 15z"/>
<path d="M2208 1000 c4 -87 22 -83 22 6 0 44 -4 64 -12 64 -10 0 -12 -19 -10
-70z"/>
<path d="M2415 1060 c-3 -5 1 -10 10 -10 9 0 13 5 10 10 -3 6 -8 10 -10 10 -2
0 -7 -4 -10 -10z"/>
<path d="M930 995 l0 -65 40 0 c22 0 40 5 40 10 0 6 -13 10 -30 10 -23 0 -30
4 -30 20 0 15 7 20 25 20 14 0 25 5 25 10 0 6 -11 10 -25 10 -18 0 -25 5 -25
19 0 15 8 21 33 24 28 3 26 4 -10 5 l-43 2 0 -65z"/>
<path d="M1380 995 l0 -65 40 0 c22 0 40 5 40 10 0 6 -13 10 -30 10 -23 0 -30
4 -30 20 0 15 7 20 25 20 14 0 25 5 25 10 0 6 -11 10 -25 10 -18 0 -25 5 -25
19 0 15 8 21 33 24 28 3 26 4 -10 5 l-43 2 0 -65z"/>
<path d="M2353 1035 c-8 -9 -9 -16 -3 -20 6 -3 10 -22 10 -41 0 -34 22 -56 38
-39 4 4 1 10 -5 12 -16 6 -17 73 -2 73 6 0 4 7 -5 15 -18 18 -18 18 -33 0z"/>
<path d="M1030 1021 c0 -5 9 -11 21 -13 l21 -3 -21 -27 c-29 -37 -26 -48 14
-48 19 0 35 5 35 10 0 6 -9 10 -20 10 -11 0 -20 3 -20 6 0 3 9 17 20 31 28 36
25 43 -15 43 -19 0 -35 -4 -35 -9z"/>
<path d="M1132 1018 c-17 -17 -15 -63 3 -78 22 -18 64 -4 71 24 12 50 -40 88
-74 54z m56 -42 c-4 -30 -42 -28 -46 3 -2 13 2 27 9 32 18 11 41 -10 37 -35z"/>
<path d="M1230 978 c0 -26 5 -48 10 -48 6 0 10 17 10 38 0 21 3 42 7 45 13 13
33 -16 33 -49 0 -19 5 -34 10 -34 12 0 13 69 2 87 -4 6 -22 11 -40 11 -32 -1
-32 -2 -32 -50z"/>
<path d="M1480 979 c0 -27 5 -49 10 -49 6 0 10 18 10 39 0 24 5 41 14 44 20 8
26 -2 26 -45 0 -21 5 -38 11 -38 6 0 9 19 7 48 -3 47 -3 47 -40 49 l-38 1 0
-49z"/>
<path d="M1592 1018 c-30 -30 0 -92 41 -86 28 4 32 24 5 23 -32 0 -34 19 -3
23 20 3 26 8 23 25 -3 26 -46 35 -66 15z m48 -19 c0 -5 -10 -9 -21 -9 -18 0
-19 2 -9 15 12 15 30 12 30 -6z"/>
<path d="M1680 979 c0 -27 5 -49 10 -49 6 0 10 16 10 35 0 22 6 38 15 41 23 9
18 22 -10 22 -23 0 -25 -4 -25 -49z"/>
<path d="M1748 1005 c-17 -37 4 -79 36 -73 18 4 23 1 19 -9 -4 -10 -14 -12
-29 -9 -13 4 -24 2 -24 -3 0 -16 38 -19 59 -4 17 11 21 25 21 67 l0 53 -35 1
c-29 1 -38 -3 -47 -23z m60 -29 c-2 -13 -10 -21 -23 -21 -23 0 -32 30 -14 51
16 19 41 -1 37 -30z"/>
<path d="M1855 989 c18 -51 19 -76 3 -82 -7 -2 -10 -8 -5 -13 12 -12 33 16 51
70 18 57 19 66 7 66 -5 0 -13 -15 -17 -32 l-7 -33 -14 33 c-19 47 -35 39 -18
-9z"/>
<path d="M2099 1004 c-7 -20 -6 -32 6 -50 27 -42 75 -25 75 26 0 53 -62 72
-81 24z m61 -25 c0 -22 -5 -29 -19 -29 -24 0 -34 25 -21 50 15 27 40 14 40
-21z"/>
<path d="M2252 983 c3 -48 3 -48 41 -50 l37 -1 0 49 c0 27 -4 49 -10 49 -5 0
-10 -18 -10 -40 0 -33 -3 -40 -20 -40 -17 0 -20 7 -20 40 0 22 -5 40 -11 40
-6 0 -9 -19 -7 -47z"/>
<path d="M2420 979 c0 -31 4 -48 10 -44 6 3 10 26 10 51 0 24 -4 44 -10 44 -5
0 -10 -23 -10 -51z"/>
<path d="M2472 1018 c-7 -7 -12 -24 -12 -38 0 -51 48 -68 75 -26 32 48 -23
104 -63 64z m58 -37 c-1 -17 -20 -33 -34 -28 -19 7 -22 53 -3 60 11 4 37 -19
37 -32z"/>
<path d="M2570 978 c0 -58 16 -56 22 2 2 19 8 35 13 35 6 0 11 -16 13 -35 6
-58 22 -60 22 -2 l0 52 -35 0 -35 0 0 -52z"/>
<path d="M2677 1023 c-14 -14 -6 -34 18 -45 36 -16 31 -31 -7 -23 -31 7 -32 6
-16 -10 11 -12 24 -16 42 -11 35 9 35 43 1 52 -25 6 -31 15 -18 27 3 4 12 2
20 -5 15 -12 28 -5 18 11 -7 12 -48 15 -58 4z"/>
<path d="M472 893 c-26 -33 -31 -47 -26 -72 4 -19 11 -28 18 -24 6 4 6 1 -2
-9 -7 -9 -10 -27 -6 -47 l7 -32 28 43 c38 56 36 72 -2 28 -34 -38 -29 -23 8
26 12 17 20 34 16 37 -3 4 -13 -3 -21 -14 -13 -19 -16 -20 -24 -5 -7 13 -3 26
17 52 38 49 26 65 -13 17z"/>
<path d="M1828 821 c-9 -13 -12 -34 -9 -58 l6 -38 3 33 c2 17 8 32 14 32 7 0
6 5 -1 14 -10 11 -8 17 6 25 10 6 13 11 6 11 -6 0 -18 -9 -25 -19z"/>
<path d="M2432 823 c-2 -17 -8 -23 -26 -23 -29 0 -42 -30 -26 -60 8 -16 17
-19 33 -14 30 9 29 5 24 65 -2 30 -4 44 -5 32z m-6 -48 c4 -8 0 -22 -7 -31
-10 -13 -14 -13 -26 -1 -16 16 -7 47 13 47 8 0 17 -7 20 -15z"/>
<path d="M929 803 c-18 -49 22 -101 56 -73 8 7 15 17 15 23 0 6 -6 3 -13 -7
-20 -27 -47 -10 -47 30 0 39 21 54 47 33 14 -12 16 -12 11 1 -2 8 -17 16 -31
18 -22 3 -29 -2 -38 -25z"/>
<path d="M1591 778 c0 -42 2 -48 9 -30 6 14 18 22 34 22 27 0 42 26 25 46 -6
8 -24 14 -40 14 -28 0 -29 -1 -28 -52z m59 22 c0 -15 -7 -20 -25 -20 -18 0
-25 5 -25 20 0 15 7 20 25 20 18 0 25 -5 25 -20z"/>
<path d="M1900 780 c0 -27 5 -50 10 -50 6 0 10 23 10 50 0 28 -4 50 -10 50 -5
0 -10 -22 -10 -50z"/>
<path d="M2130 780 c0 -27 5 -50 10 -50 6 0 10 9 10 19 0 12 8 21 23 24 l22 4
-22 2 c-35 2 -31 39 5 44 22 3 20 4 -10 6 l-38 1 0 -50z"/>
<path d="M2709 828 c0 -2 -2 -24 -4 -50 -3 -32 0 -48 10 -51 24 -10 51 4 52
26 0 12 -1 16 -4 9 -10 -25 -23 1 -17 34 5 30 4 34 -15 34 -11 0 -21 -1 -22
-2z m31 -17 c0 -6 -4 -13 -10 -16 -5 -3 -10 1 -10 9 0 9 5 16 10 16 6 0 10 -4
10 -9z m-1 -55 c8 -10 9 -16 1 -21 -13 -8 -30 3 -30 21 0 18 14 18 29 0z"/>
<path d="M1027 793 c-12 -11 -7 -50 7 -62 11 -9 20 -10 35 -1 22 11 26 26 15
54 -6 16 -45 22 -57 9z m49 -18 c8 -20 -13 -45 -32 -38 -14 5 -19 34 -7 46 11
12 33 7 39 -8z"/>
<path d="M1112 762 l1 -37 4 33 c5 42 35 40 44 -3 l7 -30 1 33 c1 43 31 45 31
2 0 -16 5 -30 11 -30 6 0 9 14 7 33 -3 31 -4 32 -55 34 l-53 3 2 -38z"/>
<path d="M1241 743 c1 -33 4 -49 7 -38 4 11 13 20 20 21 6 1 17 2 23 3 5 0 9
16 7 34 -2 27 -8 33 -30 35 -28 3 -28 3 -27 -55z m44 17 c0 -36 -29 -33 -33 3
-3 23 0 28 15 25 12 -2 18 -12 18 -28z"/>
<path d="M1326 792 c-3 -5 6 -7 19 -4 14 2 25 0 25 -6 0 -6 -10 -12 -22 -14
-36 -5 -31 -43 5 -43 26 -1 28 2 25 35 -2 27 -8 36 -25 38 -11 2 -24 -1 -27
-6z m44 -41 c0 -11 -26 -22 -34 -14 -12 12 -5 23 14 23 11 0 20 -4 20 -9z"/>
<path d="M1401 758 l2 -43 6 35 c9 51 38 53 44 3 l4 -38 1 43 c2 40 1 42 -28
42 -29 0 -30 -2 -29 -42z"/>
<path d="M1481 793 c-1 -7 4 -24 11 -38 9 -21 9 -31 -1 -47 -10 -16 -10 -19 0
-16 15 5 52 108 38 108 -5 0 -9 -8 -9 -18 0 -32 -13 -34 -26 -5 -7 16 -13 23
-13 16z"/>
<path d="M1680 765 c0 -19 5 -35 10 -35 6 0 10 13 10 29 0 16 6 32 13 34 6 3
2 6 -10 6 -20 1 -23 -4 -23 -34z"/>
<path d="M1737 793 c-12 -11 -7 -50 7 -62 11 -9 20 -10 35 -1 22 11 26 26 15
54 -6 16 -45 22 -57 9z m50 -19 c7 -19 -20 -49 -36 -40 -12 8 -15 39 -4 49 12
12 33 7 40 -9z"/>
<path d="M1873 760 c0 -25 2 -35 4 -22 2 12 2 32 0 45 -2 12 -4 2 -4 -23z"/>
<path d="M1947 794 c-4 -4 -7 -20 -7 -35 0 -30 23 -44 48 -29 14 8 13 9 -7 7
-13 -1 -26 4 -28 11 -3 7 5 12 22 12 20 0 26 4 23 18 -3 17 -38 29 -51 16z
m38 -14 c3 -5 -3 -10 -14 -10 -12 0 -21 5 -21 10 0 6 6 10 14 10 8 0 18 -4 21
-10z"/>
<path d="M2211 774 c-1 -34 13 -51 42 -51 13 0 17 9 16 41 l-2 41 -6 -35 c-4
-22 -12 -35 -21 -35 -9 0 -17 13 -21 35 l-6 35 -2 -31z"/>
<path d="M2290 765 c0 -19 5 -35 10 -35 6 0 10 14 10 30 0 42 27 40 33 -2 4
-32 4 -32 5 5 2 35 0 37 -28 37 -28 0 -30 -3 -30 -35z"/>
<path d="M2463 760 c0 -25 2 -35 4 -22 2 12 2 32 0 45 -2 12 -4 2 -4 -23z"/>
<path d="M2490 765 c0 -19 5 -35 10 -35 6 0 10 14 10 30 0 20 5 30 15 30 10 0
15 -10 15 -30 0 -16 5 -30 10 -30 6 0 10 9 10 19 0 37 -12 51 -41 51 -26 0
-29 -3 -29 -35z"/>
<path d="M2575 780 c-10 -31 12 -62 38 -54 19 6 20 5 9 -9 -8 -9 -21 -13 -30
-11 -14 5 -14 4 1 -6 28 -18 47 5 47 56 0 42 -1 44 -29 44 -21 0 -32 -6 -36
-20z m53 -14 c4 -19 -16 -39 -30 -30 -4 3 -8 16 -8 30 0 19 5 25 17 22 10 -2
19 -12 21 -22z"/>
<path d="M2058 763 c7 -3 16 -2 19 1 4 3 -2 6 -13 5 -11 0 -14 -3 -6 -6z"/>
<path d="M933 600 c0 -30 2 -43 4 -27 2 15 2 39 0 55 -2 15 -4 2 -4 -28z"/>
<path d="M1272 634 c-7 -8 -8 -14 -2 -14 5 0 10 -16 10 -35 0 -19 3 -35 8 -35
7 0 8 88 0 95 -1 1 -9 -3 -16 -11z"/>
<path d="M971 586 l2 -41 6 34 c8 48 31 53 31 7 0 -20 5 -36 10 -36 14 0 12
56 -2 67 -7 6 -21 10 -30 10 -14 0 -18 -9 -17 -41z"/>
<path d="M1040 625 c0 -3 7 -22 16 -43 l16 -37 14 30 c7 17 13 37 13 45 0 8
-6 -1 -13 -20 l-13 -34 -11 32 c-9 28 -22 43 -22 27z"/>
<path d="M1121 608 c-5 -13 -5 -31 1 -40 9 -19 43 -24 52 -9 3 4 -6 6 -19 3
-15 -2 -25 0 -25 7 0 6 11 11 25 11 27 0 33 18 13 38 -19 19 -38 14 -47 -10z
m44 2 c3 -6 -1 -13 -10 -16 -19 -8 -30 0 -20 15 8 14 22 14 30 1z"/>
<path d="M1207 624 c-13 -14 -7 -33 13 -39 30 -10 25 -28 -6 -21 -17 5 -23 3
-19 -4 3 -5 17 -10 31 -10 30 0 34 35 4 43 -11 3 -20 10 -20 16 0 14 27 14 33
1 3 -6 4 -5 3 2 -3 15 -28 22 -39 12z"/>
<path d="M1332 621 c-22 -13 -11 -65 14 -69 31 -4 50 23 36 53 -12 26 -27 31
-50 16z m36 -34 c2 -19 -1 -27 -13 -27 -19 0 -30 24 -21 46 9 23 31 11 34 -19z"/>
<path d="M1413 623 c-15 -6 -18 -73 -3 -73 6 0 10 13 10 28 0 15 5 33 12 40
12 12 3 15 -19 5z"/>
<path d="M1461 616 c-11 -13 -9 -17 13 -27 34 -16 34 -33 0 -25 -17 5 -23 3
-19 -4 9 -15 55 -12 55 4 0 7 -10 20 -22 29 -13 8 -20 18 -16 22 4 4 15 2 24
-6 15 -12 17 -12 12 1 -7 21 -32 24 -47 6z"/>
<path d="M2520 199 c-9 -16 -8 -26 5 -45 20 -31 50 -31 70 0 23 34 5 66 -35
66 -19 0 -33 -7 -40 -21z m70 -24 c0 -29 -18 -43 -26 -21 -3 9 -12 16 -20 16
-23 0 -16 28 9 32 30 5 37 1 37 -27z"/>
<path d="M2628 204 c6 -3 12 -19 12 -35 0 -16 4 -29 8 -29 5 0 6 14 4 31 -3
24 -1 30 9 27 8 -2 15 -17 17 -31 4 -34 22 -36 22 -3 0 21 5 25 30 24 25 -1
30 -5 30 -25 0 -12 5 -23 10 -23 6 0 10 5 10 11 0 8 5 7 15 -1 9 -7 18 -10 22
-6 3 3 1 6 -5 6 -7 0 -12 9 -12 21 0 15 5 19 15 15 8 -3 15 -1 15 4 0 13 -27
13 -35 0 -5 -8 -11 -8 -19 -1 -6 6 -21 10 -31 9 -11 -1 -45 2 -75 5 -30 4 -49
4 -42 1z"/>
<path d="M2857 170 c9 -16 21 -30 26 -30 4 0 0 14 -10 30 -9 17 -21 30 -26 30
-4 0 0 -13 10 -30z"/>
<path d="M2870 189 c0 -5 5 -7 10 -4 6 3 10 8 10 11 0 2 -4 4 -10 4 -5 0 -10
-5 -10 -11z"/>
<path d="M2905 170 c0 -16 5 -30 11 -30 7 0 9 10 6 25 -2 15 0 25 7 25 6 0 11
-11 11 -25 0 -14 5 -25 11 -25 6 0 9 12 7 28 -2 20 -9 28 -28 30 -22 2 -25 -1
-25 -28z"/>
<path d="M2730 155 c0 -8 4 -15 8 -15 5 0 9 7 9 15 0 8 -4 15 -9 15 -4 0 -8
-7 -8 -15z"/>
</g>
</svg>
