<?xml version="1.0" encoding="UTF-8"?><svg id="Layer_1" xmlns="http://www.w3.org/2000/svg" xmlns:xlink="http://www.w3.org/1999/xlink" viewBox="0 0 484.64 162.18"><defs><style>.cls-1{fill:url(#linear-gradient-2);}.cls-2{fill:#464647;}.cls-3{fill:#db292a;font-family:DINPro-Medium, 'DIN Pro';font-size:10.13px;}.cls-4{fill:url(#linear-gradient);}.cls-5{fill:#dc272b;}</style><linearGradient id="linear-gradient" x1="402.7" y1="54.04" x2="409.88" y2="144.37" gradientTransform="translate(-5.76 -14.5) rotate(-.12)" gradientUnits="userSpaceOnUse"><stop offset="0" stop-color="#da3028"/><stop offset=".24" stop-color="#ec5b2b"/><stop offset=".31" stop-color="#e96529"/><stop offset=".51" stop-color="#e37d26"/><stop offset=".67" stop-color="#e38125"/><stop offset=".85" stop-color="#e58e23"/><stop offset="1" stop-color="#e8a022"/></linearGradient><linearGradient id="linear-gradient-2" x1="407.01" y1="78.58" x2="402.64" y2="57.32" gradientTransform="translate(-5.76 -14.5) rotate(-.12)" gradientUnits="userSpaceOnUse"><stop offset="0" stop-color="#491e1b"/><stop offset=".65" stop-color="#b94826" stop-opacity=".31"/><stop offset="1" stop-color="#ec5b2b" stop-opacity="0"/></linearGradient></defs><g><g><path class="cls-4" d="M462.17,49.03l-74.52-27.55c-1.24-.46-3.12-.2-4.19,.57l-27.17,19.7c-1.06,.77-.86,1.6,.43,1.84l57.52,10.45-76.75,44.47c-.95,.55-.96,1.47-.02,2.03l62.8,37.79c.95,.57,2.23,.29,2.85-.6l59.81-86.39c.62-.9,.28-1.94-.76-2.32Z"/><path class="cls-1" d="M387.65,21.49c-1.24-.46-3.12-.2-4.19,.57l-27.17,19.7c-1.06,.77-.86,1.6,.43,1.84l57.52,10.45,23.95-13.87-50.54-18.69Z"/></g><text class="cls-3" transform="translate(448.13 40.16) rotate(-.12) scale(1.01 1)"><tspan x="0" y="0">®</tspan></text></g><g><path class="cls-5" d="M87.14,59.86c.03,14.52,.91,22.38,3.81,25.55,2.16,2.43,5.49,4.01,9.57,4,4.08,0,7.51-1.6,9.66-4.04,2.88-3.18,3.63-11.05,3.6-25.57-.03-14.51-.91-22.38-3.81-25.55-2.15-2.43-5.49-4.01-9.57-4-4.08,0-7.52,1.6-9.66,4.04-2.89,3.18-3.63,11.06-3.6,25.56m34,30.01c-5.35,5.31-11.9,8.28-20.6,8.3-8.71,.02-15.36-2.93-20.75-8.21-7.76-7.61-7.56-17.04-7.58-30.07-.03-13.02-.27-22.45,7.46-30.09,5.36-5.3,12-8.29,20.71-8.31,8.69-.02,15.25,2.94,20.63,8.22,7.74,7.61,7.66,17.04,7.69,30.06,.03,13.03,.15,22.45-7.56,30.1"/><path class="cls-5" d="M177.28,64.87c7.41-2.66,13.94-9.24,13.92-19.83-.03-12.6-9.29-23.07-24.85-23.04l-28.41,.06c-.85,0-1.55,.69-1.55,1.54l.15,72.34c0,.85,.7,1.54,1.56,1.53l11.82-.02c.85,0,1.56-.69,1.55-1.54l-.13-63.58v-1.54s1.54,0,1.54,0l12.49-.03c8.36-.02,13.85,5.25,13.86,12.69,.02,7.44-5.45,12.72-13.81,12.74h-6.49c-.86,.01-1.25,.63-.86,1.39l19.17,38.43c.37,.76,1.38,1.38,2.23,1.38l13.41-.03c.85,0,1.23-.62,.83-1.36l-16.42-31.12Z"/><path class="cls-5" d="M281.02,30.51l32.32-.07c.87,0,1.56-.69,1.56-1.53v-5.69c-.01-.84-.71-1.54-1.57-1.53l-47.25,.1c-.85,0-1.56,.69-1.55,1.54l.15,72.34c0,.85,.71,1.53,1.56,1.53l47.25-.1c.87,0,1.56-.69,1.56-1.54v-5.69c-.01-.84-.71-1.53-1.57-1.53l-32.32,.07c-.85,0-1.57-.69-1.57-1.53l-.05-21.82c0-.84,.71-1.54,1.56-1.54l27.06-.06c.86,0,1.56-.69,1.55-1.53v-5.69c-.01-.84-.72-1.53-1.57-1.53l-27.06,.06c-.85,0-1.57-.68-1.57-1.53l-.04-21.18c0-.84,.71-1.54,1.56-1.55"/><path class="cls-5" d="M240.8,43.96c.16,.78,.9,1.4,1.73,1.4l10.7-.02c.85,0,1.45-.69,1.31-1.53,0,0-.06-.49-.26-1.36-2.91-11.83-11.74-21.25-27.86-21.22-8.17,.02-15.03,2.79-20.6,8.31-3.32,3.29-5.36,7-6.22,11.34-.84,4.24-1.25,10.49-1.24,18.75,.02,8.26,.46,14.52,1.31,18.75,.87,4.24,2.93,8.05,6.27,11.32,5.6,5.49,12.46,8.23,20.64,8.21,6.7-.01,12.69-1.77,17.71-5.32,.33-.23,0,0,0,0,1.13-.91,2.16-.83,2.86-.35l6.63,4.75c.71,.48,1.28,.22,1.28-.62l-.08-38.39c0-.84-.7-1.53-1.56-1.53l-24.61,.05c-.85,0-1.55,.69-1.54,1.54v5.69c.01,.84,.71,1.53,1.56,1.53h10.89c.85-.02,1.57,.67,1.59,1.51,0,0,.44,14.11-3.54,18.34-2.21,2.44-6.65,4.04-10.85,4.05-4.08,0-7.7-1.57-9.84-4-2.91-3.17-3.77-11.04-3.8-25.56-.03-14.51,.7-22.38,3.59-25.56,2.14-2.44,5.74-4.03,9.81-4.04,4.2,0,8.63,1.57,10.84,4,1.65,1.76,2.69,4.97,3.29,9.95"/><path class="cls-5" d="M65.04,64.81c.87,0,1.56-.7,1.56-1.53v-5.69c-.01-.84-.71-1.53-1.58-1.53l-27.06,.06c-.86,0-1.57-.69-1.57-1.53l-.05-22.03c0-.85,.7-1.54,1.56-1.55l32.34-.07c.85,0,1.55-.69,1.55-1.53v-5.68c-.01-.84-.72-1.53-1.57-1.53l-47.26,.1c-.86,0-1.56,.69-1.56,1.54l.15,72.34c0,.85,.7,1.53,1.55,1.53l11.82-.02c.86,0,1.55-.69,1.54-1.54l-.06-29.73c0-.84,.7-1.54,1.56-1.54l27.06-.06Z"/></g><g><path class="cls-2" d="M23.78,140.86h-2.33s-.04-21.56-.04-21.56h2.33s.04,21.56,.04,21.56Z"/><path class="cls-2" d="M41.59,140.82h-2.21s-.02-9.17-.02-9.17c0-1.29-.33-2.28-.99-2.95-.66-.67-1.57-1.01-2.73-1.01-1.17,0-2.08,.35-2.75,1.04-.66,.69-.99,1.67-.99,2.94l.02,9.18h-2.21s-.03-14.9-.03-14.9h2.21s0,1.63,0,1.63c1.06-1.21,2.47-1.82,4.23-1.83,1.64,0,2.93,.46,3.87,1.38,1.05,1.01,1.57,2.39,1.58,4.15l.02,9.54Z"/><path class="cls-2" d="M58.85,140.79h-2.21s-.02-9.17-.02-9.17c0-1.29-.33-2.28-.99-2.95-.66-.67-1.57-1.01-2.73-1.01-1.17,0-2.08,.35-2.75,1.04s-.99,1.67-.99,2.94l.02,9.18h-2.21s-.03-14.9-.03-14.9h2.21s0,1.63,0,1.63c1.06-1.21,2.47-1.82,4.23-1.83,1.64,0,2.93,.46,3.87,1.38,1.05,1.01,1.57,2.39,1.58,4.15l.02,9.54Z"/><path class="cls-2" d="M75.75,133.3c0,2.73-.6,4.71-1.83,5.94-1.1,1.13-2.54,1.7-4.33,1.7-1.78,0-3.22-.56-4.33-1.69-1.23-1.23-1.85-3.21-1.86-5.93,0-2.75,.6-4.73,1.83-5.94,1.1-1.13,2.54-1.7,4.33-1.7,1.78,0,3.23,.56,4.33,1.69,1.23,1.21,1.85,3.19,1.85,5.93Zm-2.21,0c0-2.28-.41-3.82-1.21-4.6-.74-.72-1.66-1.09-2.77-1.08-1.08,0-1.99,.37-2.73,1.09-.82,.81-1.22,2.34-1.22,4.61,0,2.26,.42,3.8,1.24,4.6,.74,.73,1.65,1.09,2.73,1.08,1.11,0,2.03-.37,2.76-1.1,.8-.81,1.19-2.34,1.19-4.61Z"/><path class="cls-2" d="M90.78,125.82l-5.53,14.91h-1.97s-5.56-14.88-5.56-14.88h2.4s4.14,11.95,4.14,11.95l4.12-11.97h2.4Z"/><path class="cls-2" d="M104.54,140.7h-2.21s0-1.42,0-1.42c-.59,.59-1.22,1-1.87,1.24-.66,.24-1.48,.37-2.49,.37-1.9,0-3.33-.45-4.27-1.36-.76-.72-1.14-1.73-1.14-3.02,0-1.33,.45-2.38,1.36-3.15,.91-.77,2.2-1.16,3.88-1.16h4.51s0-1.43,0-1.43c0-1.11-.31-1.93-.91-2.47-.61-.53-1.59-.8-2.97-.8-.94,0-1.69,.13-2.26,.4-.56,.26-1.08,.71-1.55,1.33l-1.51-1.36c.63-.85,1.36-1.44,2.18-1.76,.82-.32,1.87-.49,3.16-.49,4.03,0,6.05,1.64,6.06,4.95l.02,10.12Zm-2.22-5.26v-1.61s-4.21,0-4.21,0c-2.27,0-3.41,.89-3.4,2.64,0,1.7,1.17,2.54,3.51,2.54,1.49,0,2.61-.34,3.35-1.01,.51-.49,.77-1.34,.76-2.57Z"/><path class="cls-2" d="M115.71,140.67h-1.57c-1.25,0-2.21-.37-2.87-1.11-.67-.74-1-1.7-1-2.87l-.02-9.24h-1.9s0-1.66,0-1.66h1.9s0-4.58,0-4.58h2.21s0,4.57,0,4.57h3.22s0,1.66,0,1.66h-3.22s.02,9.18,.02,9.18c0,1.45,.69,2.18,2.06,2.18h1.17s0,1.87,0,1.87Z"/><path class="cls-2" d="M122.43,121.52h-2.49s0-2.45,0-2.45h2.49s0,2.45,0,2.45Zm-.11,19.14h-2.21s-.03-14.9-.03-14.9h2.21s.03,14.9,.03,14.9Z"/><path class="cls-2" d="M139.37,133.18c0,2.73-.6,4.71-1.83,5.94-1.1,1.13-2.54,1.7-4.33,1.7-1.78,0-3.22-.56-4.33-1.69-1.23-1.23-1.85-3.21-1.86-5.93,0-2.75,.6-4.73,1.83-5.94,1.1-1.13,2.54-1.7,4.33-1.7,1.78,0,3.23,.56,4.33,1.69,1.23,1.21,1.85,3.19,1.85,5.93Zm-2.21,0c0-2.28-.41-3.81-1.21-4.6-.74-.73-1.66-1.09-2.77-1.08-1.08,0-1.99,.37-2.73,1.1-.82,.81-1.22,2.34-1.22,4.61,0,2.26,.42,3.8,1.24,4.6,.74,.72,1.65,1.09,2.73,1.08,1.11,0,2.03-.37,2.76-1.09,.8-.81,1.19-2.34,1.19-4.61Z"/><path class="cls-2" d="M156,140.59h-2.21s-.02-9.17-.02-9.17c0-1.29-.33-2.28-.99-2.95-.66-.67-1.57-1.01-2.73-1.01-1.17,0-2.08,.35-2.75,1.03-.66,.69-.99,1.67-.99,2.94l.02,9.18h-2.21s-.03-14.89-.03-14.89h2.21s0,1.63,0,1.63c1.06-1.21,2.47-1.82,4.23-1.82,1.64,0,2.93,.46,3.87,1.38,1.05,1.01,1.57,2.39,1.58,4.15l.02,9.54Z"/><path class="cls-2" d="M186.86,140.53h-2.92s-1.97-2.35-1.97-2.35c-1.84,1.7-3.99,2.55-6.44,2.56-2.11,0-3.79-.56-5.04-1.7-1.25-1.14-1.88-2.66-1.88-4.55,0-.77,.12-1.47,.37-2.12,.24-.65,.62-1.24,1.13-1.77,.51-.54,.99-.97,1.43-1.3s1.04-.75,1.79-1.26c-.51-.6-.89-1.07-1.14-1.41-.25-.33-.51-.81-.8-1.44-.29-.62-.43-1.24-.43-1.85,0-1.29,.45-2.37,1.36-3.23,.91-.86,2.06-1.29,3.45-1.29,1.37,0,2.51,.43,3.41,1.29,.9,.87,1.35,1.95,1.36,3.24,0,1.47-.8,2.76-2.42,3.85l-1.63,1.09,5.6,6.62c.45-.67,.76-1.35,.93-2.06,.17-.71,.27-1.67,.29-2.88h2.21c-.03,2.84-.71,5.04-2.01,6.6l3.36,3.96Zm-6.21-3.92l-6.03-7.14c-.65,.45-1.13,.78-1.43,1-.3,.22-.66,.55-1.1,.99-.44,.43-.75,.89-.93,1.36s-.27,1-.27,1.59c0,1.27,.43,2.31,1.3,3.1,.86,.8,1.97,1.19,3.32,1.19,1.86,0,3.58-.7,5.15-2.1Zm-2.3-13.26c0-.73-.25-1.34-.74-1.83-.49-.49-1.11-.74-1.84-.74-.74,0-1.34,.24-1.81,.72-.47,.48-.7,1.08-.7,1.8,0,.48,.14,.97,.42,1.47,.28,.5,.8,1.19,1.55,2.07l1.17-.79c.63-.43,1.12-.84,1.46-1.25s.5-.89,.5-1.45Z"/><path class="cls-2" d="M213.07,118.91l-7.14,21.58h-1.9s-7.23-21.54-7.23-21.54h2.46s5.72,17.43,5.72,17.43l5.65-17.45h2.46Z"/><path class="cls-2" d="M226.45,133.57l-10.19,.02c0,1.66,.38,2.93,1.14,3.81,.76,.89,1.87,1.33,3.32,1.33,.86,0,1.58-.13,2.16-.4,.58-.26,1.18-.7,1.79-1.31l1.51,1.3c-.82,.81-1.64,1.4-2.45,1.76-.82,.36-1.84,.55-3.07,.55-2.09,0-3.71-.62-4.87-1.88-1.16-1.26-1.74-3.17-1.75-5.73,0-2.4,.54-4.28,1.65-5.62,1.1-1.34,2.62-2.02,4.54-2.02,1.94,0,3.47,.63,4.56,1.91,1.1,1.28,1.65,3.05,1.65,5.31v.97Zm-2.18-1.63c-.08-1.15-.25-1.98-.5-2.48-.72-1.49-1.9-2.24-3.54-2.23-1.64,0-2.81,.75-3.53,2.25-.24,.53-.4,1.35-.46,2.48l8.01-.02Z"/><path class="cls-2" d="M243.05,140.41h-2.21s-.02-9.17-.02-9.17c0-1.29-.33-2.28-.99-2.95-.66-.67-1.57-1.01-2.73-1.01-1.17,0-2.08,.35-2.75,1.04-.66,.69-.99,1.67-.99,2.94l.02,9.18h-2.21s-.03-14.89-.03-14.89h2.21s0,1.63,0,1.63c1.06-1.21,2.47-1.82,4.23-1.83,1.64,0,2.93,.46,3.87,1.38,1.05,1.01,1.57,2.39,1.58,4.15l.02,9.54Z"/><path class="cls-2" d="M254.22,140.39h-1.57c-1.25,0-2.21-.37-2.87-1.11-.67-.74-1-1.7-1-2.87l-.02-9.24h-1.9s0-1.66,0-1.66h1.9s0-4.58,0-4.58h2.21s0,4.57,0,4.57h3.22s0,1.66,0,1.66h-3.22s.02,9.18,.02,9.18c0,1.45,.69,2.18,2.06,2.18h1.17s0,1.87,0,1.87Z"/><path class="cls-2" d="M270.34,140.36h-2.18s0-1.66,0-1.66c-1.08,1.23-2.51,1.85-4.26,1.86-1.66,0-2.96-.46-3.9-1.39-1.03-.99-1.54-2.38-1.54-4.18l-.02-9.51h2.21s.02,9.17,.02,9.17c0,1.29,.33,2.28,.97,2.95,.65,.68,1.55,1.01,2.72,1.01,1.17,0,2.09-.35,2.76-1.04,.67-.69,1.01-1.67,1.01-2.94l-.02-9.18h2.21s.03,14.89,.03,14.89Z"/><path class="cls-2" d="M285.92,126.64l-1.62,1.64c-.41-.4-.81-.68-1.18-.85-.38-.16-.86-.24-1.43-.24-1.08,0-1.96,.38-2.62,1.14s-.99,1.71-.99,2.86l.02,9.15h-2.21s-.03-14.89-.03-14.89h2.21s0,1.81,0,1.81c.41-.63,1-1.12,1.76-1.47,.77-.36,1.59-.53,2.47-.53,1.47,0,2.68,.46,3.63,1.38Z"/><path class="cls-2" d="M299.44,133.42l-10.19,.02c0,1.66,.38,2.93,1.14,3.81,.76,.89,1.87,1.33,3.32,1.33,.86,0,1.58-.13,2.16-.4,.58-.26,1.18-.7,1.79-1.31l1.51,1.3c-.82,.81-1.64,1.4-2.45,1.76-.82,.37-1.84,.55-3.07,.55-2.09,0-3.71-.62-4.87-1.88-1.16-1.26-1.74-3.17-1.75-5.73,0-2.4,.54-4.28,1.65-5.62,1.1-1.35,2.62-2.02,4.54-2.02,1.94,0,3.47,.63,4.56,1.91s1.65,3.05,1.65,5.31v.97Zm-2.18-1.63c-.08-1.15-.25-1.98-.5-2.48-.72-1.49-1.9-2.24-3.54-2.23-1.64,0-2.81,.75-3.53,2.25-.24,.53-.4,1.35-.46,2.48l8.01-.02Z"/><path class="cls-2" d="M315.04,135.91c0,1.41-.55,2.52-1.67,3.33-1.11,.81-2.6,1.22-4.47,1.22-2.66,0-4.73-.71-6.21-2.14l1.47-1.46c1.11,1.15,2.67,1.72,4.7,1.72,1.27,0,2.26-.23,2.96-.67,.7-.44,1.06-1.1,1.06-1.97,0-1.31-.84-2.04-2.52-2.18l-2.49-.21c-3.01-.24-4.52-1.56-4.52-3.99,0-1.33,.51-2.39,1.53-3.18,1.02-.79,2.36-1.18,4.02-1.19,2.27,0,4.08,.53,5.44,1.59l-1.44,1.43c-1.05-.79-2.39-1.18-4.03-1.17-1.08,0-1.92,.22-2.5,.64-.58,.43-.87,1.03-.87,1.82,0,.67,.22,1.17,.65,1.51,.43,.34,1.12,.56,2.06,.66l2.36,.21c1.43,.14,2.53,.51,3.3,1.11,.77,.6,1.15,1.57,1.16,2.91Z"/></g></svg>