<?xml version="1.0" standalone="no"?>
<!DOCTYPE svg PUBLIC "-//W3C//DTD SVG 20010904//EN"
 "http://www.w3.org/TR/2001/REC-SVG-20010904/DTD/svg10.dtd">
<svg version="1.0" xmlns="http://www.w3.org/2000/svg"
 width="200.000000pt" height="188.000000pt" viewBox="0 0 200.000000 188.000000"
 preserveAspectRatio="xMidYMid meet">

<g transform="translate(0.000000,188.000000) scale(0.100000,-0.100000)"
fill="white" stroke="none">
<path d="M0 940 l0 -940 1000 0 1000 0 0 940 0 940 -1000 0 -1000 0 0 -940z
m1755 240 c0 -13 -90 -15 -739 -18 -447 -1 -743 1 -749 7 -29 29 12 31 746 29
652 -3 742 -5 742 -18z m-1435 -133 l5 -59 56 57 c43 43 64 57 92 61 21 2 37
1 37 -4 0 -4 -43 -50 -95 -102 -52 -52 -94 -99 -94 -105 1 -5 1 -29 0 -53 -1
-41 -2 -43 -28 -40 l-28 3 -3 147 c-2 133 -1 147 15 151 34 7 38 2 43 -56z
m564 -83 c3 -80 4 -150 0 -155 -3 -5 -18 -9 -35 -9 -29 0 -29 0 -29 60 l0 60
-90 0 -90 0 0 -60 0 -60 -30 0 -30 0 0 142 0 142 30 -29 c17 -16 30 -37 30
-47 0 -16 10 -18 90 -18 89 0 90 0 90 25 0 25 -1 25 -78 25 -76 0 -79 1 -112
35 l-34 35 140 0 141 0 7 -146z m865 136 c8 -4 11 -52 9 -151 l-3 -144 -27 -3
-28 -3 0 120 0 121 -30 0 c-28 0 -29 -1 -32 -57 -3 -55 -4 -58 -30 -61 -27 -3
-28 -2 -29 50 -1 29 -1 56 0 61 0 4 -7 7 -17 7 -17 0 -72 48 -72 63 0 8 245 6
259 -3z m-749 -108 c0 -107 0 -109 -30 -137 l-30 -29 0 137 0 137 30 0 30 0 0
-108z m518 -77 l-3 -110 -27 -3 -28 -3 -1 105 c-3 200 -6 186 31 151 l31 -29
-3 -111z m-126 35 l-4 -31 -72 3 c-69 3 -71 4 -74 31 l-3 27 79 0 79 0 -5 -30z
m-919 -99 c20 -19 37 -39 37 -43 0 -4 -17 -8 -38 -8 -32 0 -45 7 -82 45 -43
44 -43 45 -25 65 l18 20 26 -22 c14 -12 43 -38 64 -57z m707 -21 l0 -30 -105
0 c-58 0 -105 3 -105 7 0 4 10 17 22 30 19 20 31 23 105 23 l83 0 0 -30z m580
-105 c0 -13 -90 -15 -750 -15 -660 0 -750 2 -750 15 0 13 90 15 750 15 660 0
750 -2 750 -15z"/>
</g>
</svg>
