<?xml version="1.0" standalone="no"?>
<!DOCTYPE svg PUBLIC "-//W3C//DTD SVG 20010904//EN"
 "http://www.w3.org/TR/2001/REC-SVG-20010904/DTD/svg10.dtd">
<svg version="1.0" xmlns="http://www.w3.org/2000/svg"
 width="343.000000pt" height="124.000000pt" viewBox="0 0 343.000000 124.000000"
 preserveAspectRatio="xMidYMid meet">

<g transform="translate(0.000000,124.000000) scale(0.100000,-0.100000)"
fill="white" stroke="none">
<path d="M2500 1045 l0 -125 30 0 c26 0 30 4 30 28 0 50 15 56 35 12 17 -37
21 -40 57 -40 l38 0 -35 70 -35 69 30 51 c17 28 30 53 30 55 0 3 -15 5 -33 5
-29 0 -36 -5 -57 -47 l-25 -48 -3 48 c-3 45 -5 47 -33 47 l-29 0 0 -125z"/>
<path d="M2714 1149 c-16 -17 -19 -37 -19 -111 0 -82 2 -91 24 -109 53 -43
141 -8 141 57 0 31 -3 34 -29 34 -25 0 -30 -4 -33 -27 -2 -17 -9 -28 -18 -28
-12 0 -15 15 -15 79 0 53 4 81 12 83 7 3 15 -7 19 -21 5 -20 12 -26 35 -26 24
0 29 4 29 25 0 39 -33 65 -83 65 -32 0 -49 -6 -63 -21z"/>
<path d="M2980 1045 l0 -125 30 0 30 0 0 125 0 125 -30 0 -30 0 0 -125z"/>
<path d="M3070 1045 l0 -125 35 0 35 0 0 51 c0 65 21 62 34 -4 9 -44 11 -47
40 -47 31 0 31 0 28 48 -2 26 -11 54 -18 63 -13 14 -13 17 1 22 10 4 15 20 15
46 0 54 -25 71 -107 71 l-63 0 0 -125z m104 59 c6 -17 -9 -44 -25 -44 -5 0 -9
14 -9 30 0 33 23 42 34 14z"/>
<path d="M3270 1045 l0 -125 35 0 35 0 0 125 0 125 -35 0 -35 0 0 -125z"/>
<path d="M100 620 l0 -520 1615 0 1615 0 0 355 0 355 -475 0 -475 0 0 165 0
165 -1140 0 -1140 0 0 -520z m150 400 l5 -45 30 47 c24 38 36 48 58 48 15 0
27 -2 27 -5 0 -3 -16 -30 -36 -60 l-36 -54 42 -75 41 -76 -34 0 c-31 0 -36 4
-57 50 -13 27 -27 47 -32 44 -4 -3 -8 -25 -8 -50 0 -42 -1 -44 -30 -44 l-30 0
0 136 0 135 28 -3 c24 -3 28 -8 32 -48z m190 -54 c0 -83 3 -108 16 -121 31
-31 43 -2 46 113 3 107 3 107 28 107 25 0 25 -1 28 -99 2 -58 -2 -111 -8 -127
-21 -50 -98 -62 -142 -22 -15 14 -18 34 -18 135 l0 118 25 0 25 0 0 -104z
m250 22 c8 -42 18 -79 21 -82 3 -4 12 27 19 66 17 99 17 98 61 98 l39 0 0
-135 0 -135 -25 0 c-24 0 -24 1 -27 98 l-3 97 -20 -95 c-18 -82 -24 -95 -43
-98 -15 -2 -23 3 -27 20 -3 13 -14 57 -24 98 l-19 75 -1 -97 c-1 -98 -1 -98
-26 -98 l-25 0 0 128 c0 71 3 132 7 136 4 4 23 6 42 4 l36 -3 15 -77z m296 67
c3 -8 21 -68 38 -135 l33 -120 -28 0 c-22 0 -30 6 -35 26 -6 22 -11 25 -43 22
-29 -2 -37 -8 -39 -25 -3 -18 -10 -23 -33 -23 -16 0 -29 3 -29 6 0 8 48 187
61 232 9 27 16 32 40 32 17 0 32 -6 35 -15z m240 -7 c21 -21 21 -88 0 -103
-13 -10 -13 -14 -2 -26 8 -8 16 -38 19 -66 l6 -53 -29 0 c-28 0 -30 2 -30 39
0 55 -8 71 -36 71 -22 0 -24 -4 -24 -55 0 -54 0 -55 -30 -55 l-30 0 0 128 c0
71 3 132 8 136 13 14 131 1 148 -16z m178 5 c3 -10 17 -63 31 -118 15 -55 29
-108 31 -117 4 -14 -1 -18 -25 -18 -23 0 -30 5 -33 23 -2 17 -10 23 -39 25
-32 3 -37 0 -43 -22 -5 -20 -13 -26 -35 -26 l-29 0 33 125 c18 68 36 129 40
135 11 17 63 12 69 -7z m231 -8 c34 -33 32 -55 -4 -55 -20 0 -30 6 -34 20 -7
28 -36 25 -47 -6 -17 -43 -12 -129 8 -154 17 -21 19 -21 35 -5 23 22 21 52 -3
58 -11 3 -20 12 -20 21 0 12 10 16 45 16 l45 0 0 -70 0 -70 -32 1 c-18 0 -45
-2 -60 -6 -21 -6 -32 -2 -53 19 -26 26 -27 30 -23 122 3 86 5 98 27 115 33 27
86 25 116 -6z m113 -87 c3 -115 15 -144 46 -113 13 13 16 38 16 121 l0 104 25
0 25 0 0 -118 c0 -101 -3 -121 -17 -135 -44 -39 -126 -27 -144 20 -11 28 -12
216 -2 227 4 4 16 6 28 4 18 -3 20 -11 23 -110z m282 99 c37 -19 49 -61 27
-99 -13 -22 -14 -34 -7 -43 6 -7 13 -36 17 -65 l6 -52 -29 4 c-27 3 -29 7 -34
53 -5 46 -7 50 -32 53 -28 3 -28 2 -28 -52 0 -53 -1 -56 -25 -56 l-25 0 0 135
0 135 53 0 c28 0 63 -6 77 -13z m128 -99 c2 -78 6 -109 17 -118 12 -10 18 -10
30 0 12 10 15 37 15 122 l0 109 28 -3 27 -3 0 -112 c-1 -94 -4 -115 -19 -132
-42 -46 -126 -34 -145 21 -12 34 -15 211 -4 222 4 4 16 6 28 4 18 -3 20 -11
23 -110z m-1848 -268 c29 -29 26 -60 -5 -60 -18 0 -25 5 -25 20 0 13 -7 20
-19 20 -24 0 -31 -19 -31 -79 0 -74 40 -110 52 -46 2 12 13 21 26 23 18 3 22
-1 22 -22 0 -35 -33 -66 -70 -66 -52 0 -70 29 -70 115 0 86 18 115 70 115 17
0 39 -9 50 -20z m1171 1 c19 -15 24 -30 27 -87 3 -59 1 -73 -18 -96 -15 -20
-30 -28 -53 -28 -58 0 -77 30 -77 120 0 51 4 65 25 85 29 30 64 32 96 6z
m1007 3 c28 -20 30 -54 2 -54 -11 0 -23 7 -26 15 -9 23 -44 19 -44 -5 0 -14
14 -26 45 -41 24 -11 47 -29 50 -39 9 -27 -5 -69 -25 -80 -29 -15 -81 -12
-102 7 -27 24 -23 53 7 53 15 0 25 -6 25 -14 0 -19 14 -28 34 -20 30 11 18 40
-25 59 -48 22 -63 45 -54 86 11 48 68 65 113 33z m-2008 -9 c0 -11 -11 -15
-40 -15 -36 0 -40 -3 -40 -24 0 -21 5 -25 37 -28 27 -2 39 -8 41 -20 3 -15 -4
-18 -37 -18 -39 0 -41 -2 -41 -30 0 -28 2 -30 40 -30 34 0 40 -3 40 -20 0 -19
-5 -21 -62 -18 l-63 3 -3 108 -3 107 66 0 c51 0 65 -3 65 -15z m102 -52 l23
-68 3 68 c3 59 5 67 22 67 19 0 20 -8 20 -111 l0 -110 -27 3 c-23 3 -29 12
-49 68 l-22 65 -3 -65 c-4 -57 -6 -65 -24 -65 -19 0 -20 8 -23 108 l-3 107 30
0 c27 0 31 -5 53 -67z m228 52 c0 -9 -9 -15 -25 -15 -25 0 -25 0 -25 -95 0
-88 -2 -95 -20 -95 -18 0 -20 8 -22 93 -3 87 -4 92 -25 95 -13 2 -23 10 -23
18 0 11 16 14 70 14 56 0 70 -3 70 -15z m150 -4 c14 -28 13 -57 -5 -74 -13
-13 -13 -16 0 -27 9 -8 15 -30 15 -57 0 -40 -2 -44 -22 -41 -19 2 -24 10 -26
45 -2 26 -9 43 -18 47 -26 10 -34 -3 -34 -50 0 -37 -3 -44 -20 -44 -19 0 -20
7 -20 110 l0 110 60 0 c48 0 61 -4 70 -19z m160 5 c0 -10 -13 -16 -37 -18 -31
-2 -39 -7 -41 -25 -3 -21 1 -23 37 -23 34 0 41 -3 41 -19 0 -16 -8 -20 -37
-23 -33 -3 -38 -6 -38 -28 0 -22 5 -25 43 -28 34 -3 43 -7 40 -20 -3 -13 -16
-18 -66 -20 l-62 -3 0 111 0 110 60 0 c46 0 60 -3 60 -14z m230 -1 c0 -11 -11
-15 -40 -15 -36 0 -40 -2 -40 -25 0 -22 4 -25 35 -25 28 0 35 -4 35 -20 0 -16
-7 -20 -34 -20 -34 0 -35 -1 -38 -47 -3 -41 -6 -48 -25 -51 -23 -3 -23 -2 -23
107 l0 111 65 0 c51 0 65 -3 65 -15z m317 -11 c16 -24 16 -29 1 -54 -9 -16
-12 -32 -8 -37 5 -4 12 -30 15 -56 7 -47 7 -49 -16 -45 -19 2 -25 10 -27 38
-4 39 -17 60 -38 60 -10 0 -14 -14 -14 -51 0 -47 -2 -50 -22 -47 -22 3 -23 8
-26 111 l-3 107 60 0 c54 0 62 -3 78 -26z m163 -84 l0 -110 -25 0 -25 0 0 110
0 110 25 0 25 0 0 -110z m107 45 l22 -60 0 63 c1 60 2 62 26 62 l26 0 -3 -107
c-3 -108 -3 -108 -28 -108 -22 0 -28 9 -50 70 l-25 70 -3 -72 c-3 -65 -5 -73
-22 -73 -19 0 -20 7 -20 111 l0 110 28 -3 c23 -3 30 -11 49 -63z m225 48 c14
-13 18 -31 18 -89 0 -66 -2 -74 -26 -93 -18 -14 -41 -21 -70 -21 l-44 0 0 110
0 110 52 0 c34 0 58 -6 70 -17z m98 -72 c0 -94 11 -120 37 -86 8 12 13 47 13
97 0 71 2 78 20 78 19 0 20 -7 20 -94 0 -87 -2 -96 -22 -110 -12 -9 -37 -16
-55 -16 -50 0 -63 28 -63 132 0 87 0 88 25 88 25 0 25 -1 25 -89z m410 74 c0
-9 -9 -15 -25 -15 -25 0 -25 0 -25 -96 0 -93 -1 -95 -22 -92 -22 3 -23 8 -26
96 -2 84 -4 92 -22 92 -11 0 -20 7 -20 15 0 12 14 15 70 15 56 0 70 -3 70 -15z
m144 -1 c20 -19 20 -44 2 -69 -11 -15 -11 -22 0 -44 8 -14 14 -41 14 -59 0
-29 -3 -33 -22 -30 -19 2 -24 10 -26 43 -3 39 -15 55 -39 55 -9 0 -13 -17 -13
-50 0 -43 -3 -50 -20 -50 -19 0 -20 7 -20 110 l0 110 54 0 c36 0 60 -5 70 -16z
m94 -91 c-3 -103 -4 -108 -25 -111 -23 -3 -23 -2 -23 107 l0 111 25 0 26 0 -3
-107z m156 5 c14 -57 26 -107 26 -111 0 -5 -10 -7 -22 -5 -15 2 -24 11 -26 26
-3 17 -10 22 -33 22 -22 0 -30 -5 -35 -25 -4 -18 -13 -25 -31 -25 -18 0 -23 4
-19 18 2 9 14 53 26 97 12 44 23 86 25 93 3 6 17 12 33 12 28 0 30 -2 56 -102z
m86 12 l0 -90 40 0 c33 0 40 -3 40 -20 0 -18 -7 -20 -60 -20 l-60 0 0 110 c0
103 1 110 20 110 19 0 20 -7 20 -90z m-2834 -245 c18 -25 18 -60 -1 -75 -13
-11 -13 -14 0 -27 8 -8 15 -32 15 -54 0 -36 -2 -40 -22 -37 -18 2 -24 11 -28
43 -3 27 -10 41 -22 43 -15 3 -18 -4 -18 -42 0 -42 -2 -46 -25 -46 l-25 0 0
111 0 111 56 -4 c40 -3 61 -10 70 -23z m164 5 c0 -17 -7 -20 -40 -20 -36 0
-40 -2 -40 -25 0 -22 4 -25 40 -25 33 0 40 -3 40 -20 0 -17 -7 -20 -40 -20
-36 0 -40 -2 -40 -25 0 -22 4 -25 40 -25 33 0 40 -3 40 -20 0 -18 -7 -20 -60
-20 l-60 0 0 110 0 110 60 0 c53 0 60 -2 60 -20z m134 4 c23 -22 20 -54 -4
-54 -11 0 -20 6 -20 14 0 20 -27 27 -40 10 -14 -16 2 -44 25 -44 7 0 24 -9 39
-21 66 -52 -3 -145 -81 -107 -35 17 -46 68 -15 68 11 0 22 -9 25 -20 3 -12 14
-20 27 -20 34 0 22 42 -18 61 -40 18 -52 35 -52 71 0 49 78 78 114 42z m166
-4 c0 -16 -7 -20 -35 -20 -31 0 -35 -3 -35 -25 0 -22 4 -25 35 -25 28 0 35 -4
35 -20 0 -16 -7 -20 -35 -20 -31 0 -35 -3 -35 -25 0 -22 4 -25 35 -25 24 0 38
-5 42 -17 6 -15 12 2 53 155 10 39 14 43 38 40 25 -3 29 -10 54 -103 15 -55
27 -103 28 -107 0 -5 -11 -8 -25 -8 -18 0 -25 5 -25 20 0 28 -56 28 -65 0 -6
-18 -15 -20 -96 -20 l-89 0 0 103 c0 57 3 107 7 110 3 4 30 7 60 7 46 0 53 -2
53 -20z m298 13 c33 -8 46 -48 28 -83 -7 -16 -10 -32 -6 -37 4 -4 10 -27 14
-50 6 -41 5 -43 -18 -43 -22 0 -25 5 -28 43 -2 35 -7 43 -25 45 -21 3 -23 -1
-23 -42 0 -39 -3 -46 -20 -46 -19 0 -20 7 -20 110 l0 110 38 0 c20 0 47 -3 60
-7z m180 -9 c28 -19 30 -64 4 -64 -11 0 -24 11 -30 25 -8 16 -17 23 -27 19
-24 -10 -17 -147 7 -152 12 -2 19 5 24 22 8 34 44 36 44 3 0 -38 -24 -61 -64
-61 -54 0 -70 22 -74 102 -3 57 -1 71 18 95 25 31 63 36 98 11z m92 -29 c0
-41 2 -45 24 -45 22 0 25 5 28 43 2 34 7 42 23 42 19 0 20 -8 23 -107 l3 -108
-26 0 c-23 0 -25 4 -25 45 0 41 -2 45 -25 45 -23 0 -25 -4 -25 -45 0 -38 -3
-45 -20 -45 -19 0 -20 7 -20 110 0 103 1 110 20 110 17 0 20 -7 20 -45z m298
29 c27 -19 28 -48 4 -72 -17 -17 -17 -21 -4 -38 10 -13 16 -15 19 -6 3 6 13
12 24 12 22 0 22 0 9 -35 -7 -18 -7 -33 0 -46 10 -18 8 -20 -27 -20 -21 0 -53
0 -70 -1 -18 0 -39 5 -48 12 -21 18 -19 63 5 93 13 16 16 28 10 32 -29 18 7
85 45 85 6 0 21 -7 33 -16z m200 -97 l3 -107 -26 0 -25 0 0 103 c0 107 3 120
30 115 12 -3 16 -23 18 -111z m101 58 c12 -31 22 -61 23 -68 1 -7 4 17 7 53 5
51 10 66 24 68 15 3 17 -7 17 -107 0 -111 0 -111 -24 -111 -21 0 -28 9 -48 68
l-23 67 -3 -67 c-3 -60 -5 -68 -22 -68 -19 0 -20 8 -20 110 0 110 0 110 24
110 21 0 28 -9 45 -55z m181 -20 l25 -70 3 73 c2 63 5 73 20 70 15 -3 17 -19
20 -111 l3 -107 -29 0 c-26 0 -30 5 -49 63 l-21 62 -1 -62 c-1 -60 -2 -63 -26
-63 l-25 0 0 103 c0 57 3 107 7 111 4 4 16 6 28 4 15 -2 26 -20 45 -73z m206
67 c35 -23 48 -148 19 -189 -34 -49 -106 -36 -125 23 -17 52 -6 134 21 157 22
17 65 22 85 9z m104 -49 c17 -89 22 -93 35 -32 16 75 22 89 39 89 24 0 24 -11
5 -95 -10 -44 -21 -90 -24 -102 -4 -17 -13 -23 -34 -23 -29 0 -30 2 -54 103
-13 56 -22 105 -20 110 2 4 13 7 23 7 15 0 21 -12 30 -57z m210 15 c6 -24 20
-73 30 -110 l18 -68 -23 0 c-15 0 -26 7 -30 20 -4 14 -15 20 -36 20 -22 0 -29
-5 -29 -20 0 -15 -7 -20 -25 -20 -14 0 -25 3 -25 6 0 10 52 198 57 207 2 4 15
7 28 7 20 0 26 -7 35 -42z m170 22 c0 -13 -7 -20 -20 -20 -19 0 -20 -7 -20
-90 0 -89 0 -90 -25 -90 -25 0 -25 1 -25 90 0 89 0 90 -25 90 -24 0 -34 18
-18 33 3 4 35 7 70 7 56 0 63 -2 63 -20z m68 -93 l3 -107 -26 0 -25 0 0 103
c0 107 3 120 30 115 12 -3 16 -23 18 -111z m138 105 c35 -23 48 -148 19 -189
-18 -26 -56 -36 -89 -23 -50 19 -61 164 -15 203 22 17 65 22 85 9z m111 -4 c4
-7 18 -40 30 -73 l21 -60 1 73 c1 65 3 72 21 72 19 0 20 -7 20 -111 l0 -110
-27 3 c-23 3 -29 12 -49 68 l-22 65 -1 -67 c-1 -61 -3 -68 -21 -68 -19 0 -20
7 -20 110 0 102 1 110 19 110 11 0 23 -6 28 -12z"/>
<path d="M941 965 c-16 -57 -14 -65 13 -65 23 0 23 2 15 43 -14 64 -15 65 -28
22z"/>
<path d="M1130 984 c0 -31 3 -35 21 -32 48 7 51 68 4 68 -22 0 -25 -4 -25 -36z"/>
<path d="M1357 973 c-4 -23 -10 -48 -13 -57 -5 -12 0 -16 20 -16 26 0 27 2 20
38 -13 70 -20 80 -27 35z"/>
<path d="M1950 985 c0 -34 2 -36 28 -33 23 3 27 8 27 33 0 25 -4 30 -27 33
-26 3 -28 1 -28 -33z"/>
<path d="M1409 633 c-3 -104 5 -129 35 -117 14 5 16 18 14 78 -3 65 -5 71 -25
74 -20 3 -23 -1 -24 -35z"/>
<path d="M870 640 c0 -27 3 -31 23 -28 31 4 31 52 0 56 -20 3 -23 -1 -23 -28z"/>
<path d="M1580 640 c0 -27 3 -31 23 -28 16 2 22 10 22 28 0 18 -6 26 -22 28
-20 3 -23 -1 -23 -28z"/>
<path d="M2080 595 c0 -72 1 -75 24 -75 26 0 36 21 36 78 0 44 -16 72 -40 72
-18 0 -20 -7 -20 -75z"/>
<path d="M2730 640 c0 -27 3 -31 23 -28 16 2 22 10 22 28 0 18 -6 26 -22 28
-20 3 -23 -1 -23 -28z"/>
<path d="M2996 619 c-9 -46 -8 -49 13 -49 17 0 18 4 11 36 -11 48 -16 51 -24
13z"/>
<path d="M240 319 c0 -24 4 -30 18 -27 10 2 18 14 20 31 3 22 -1 27 -17 27
-17 0 -21 -6 -21 -31z"/>
<path d="M866 299 c-9 -46 -8 -49 13 -49 17 0 18 4 11 36 -11 48 -16 51 -24
13z"/>
<path d="M1020 320 c0 -27 3 -31 23 -28 16 2 22 10 22 28 0 18 -6 26 -22 28
-20 3 -23 -1 -23 -28z"/>
<path d="M1602 339 c1 -13 8 -23 13 -21 15 3 12 35 -3 40 -9 3 -13 -3 -10 -19z"/>
<path d="M1585 240 c-8 -26 1 -40 26 -40 22 0 24 17 5 43 -17 22 -23 22 -31
-3z"/>
<path d="M2280 345 c-6 -8 -10 -40 -8 -77 3 -56 5 -63 25 -66 19 -3 23 3 28
41 12 78 -15 139 -45 102z"/>
<path d="M2605 304 c-4 -16 -8 -35 -11 -41 -2 -8 5 -13 17 -13 18 0 19 4 13
38 -9 48 -12 51 -19 16z"/>
<path d="M2970 345 c-6 -8 -10 -40 -8 -77 3 -55 6 -63 24 -66 23 -3 34 19 34
73 0 65 -25 100 -50 70z"/>
<path d="M2890 956 c0 -33 2 -36 31 -36 28 0 30 2 27 33 -2 27 -8 33 -30 35
-26 3 -28 1 -28 -32z"/>
</g>
</svg>
